# xmcd
#
# Track frame offsets:
# 150
# 17741
# 33314
# 54024
# 68885
# 89243
# 104187
# 115624
# 139961
# 163228
#
# Disc length: 2427 seconds
#
#
# Revision: 0
# Processed by: cddbd v1.5.1PL2 Copyright (c) Steve Scherf et al.
# Submitted via: FreeRIP 2.944 
#
DISCID=8c09790a
DTITLE=Rodney Croiwell - Super Hits 
DYEAR=1995
DGENRE=Country
TTITLE0=Lovin' All Night
TTITLE1=It's Such A Small World
TTITLE2=Life Is Messy
TTITLE3=I Couldn't Leave You If I Tried
TTITLE4=After All This Time
TTITLE5=She's Crazy For Leaving
TTITLE6=Above And Beyond
TTITLE7=Last Waltz ,
TTITLE8=Alone But Not Alone
TTITLE9=Things I Wish I'd Said
EXTD=
EXTT0=
EXTT1=
EXTT2=
EXTT3=
EXTT4=
EXTT5=
EXTT6=
EXTT7=
EXTT8=
EXTT9=
PLAYORDER=
